<svg width="1600" height="1260" viewBox="0 0 1600 1260" fill="none" xmlns="http://www.w3.org/2000/svg">
  <rect width="1600" height="1260" rx="44" fill="#0E140F"/>
  <rect x="80" y="92" width="1440" height="1076" rx="36" fill="#121A13"/>
  <rect x="128" y="142" width="388" height="44" rx="22" fill="#F2F7F0"/>
  <rect x="128" y="216" width="254" height="24" rx="12" fill="#7D8D7E"/>
  <rect x="128" y="310" width="736" height="706" rx="28" fill="#172218"/>
  <rect x="912" y="310" width="480" height="706" rx="28" fill="#172218"/>
  <rect x="182" y="376" width="238" height="180" rx="26" fill="#253327"/>
  <rect x="472" y="430" width="188" height="142" rx="22" fill="url(#a)"/>
  <rect x="216" y="772" width="560" height="92" rx="24" fill="url(#a)"/>
  <rect x="968" y="382" width="256" height="58" rx="18" fill="#253327"/>
  <rect x="968" y="474" width="256" height="58" rx="18" fill="#253327"/>
  <rect x="968" y="566" width="256" height="58" rx="18" fill="#253327"/>
  <defs>
    <linearGradient id="a" x1="472" y1="501" x2="776" y2="857" gradientUnits="userSpaceOnUse">
      <stop stop-color="#1E7A32"/>
      <stop offset="0.55" stop-color="#4D9B22"/>
      <stop offset="1" stop-color="#72BC28"/>
    </linearGradient>
  </defs>
</svg>
