<svg width="1600" height="1260" viewBox="0 0 1600 1260" fill="none" xmlns="http://www.w3.org/2000/svg">
  <rect width="1600" height="1260" rx="44" fill="#0E140F"/>
  <rect x="80" y="92" width="1440" height="1076" rx="36" fill="#121A13"/>
  <rect x="128" y="142" width="350" height="44" rx="22" fill="#F2F7F0"/>
  <rect x="128" y="216" width="310" height="24" rx="12" fill="#7D8D7E"/>
  <rect x="128" y="304" width="800" height="760" rx="28" fill="#182319"/>
  <path d="M270 472L696 388L758 860L332 942L270 472Z" fill="#243126" stroke="#72BC28" stroke-width="12"/>
  <circle cx="270" cy="472" r="16" fill="#72BC28"/>
  <circle cx="696" cy="388" r="16" fill="#72BC28"/>
  <circle cx="758" cy="860" r="16" fill="#72BC28"/>
  <circle cx="332" cy="942" r="16" fill="#72BC28"/>
  <rect x="982" y="304" width="418" height="760" rx="28" fill="#182319"/>
  <rect x="1048" y="398" width="286" height="74" rx="22" fill="url(#a)"/>
  <rect x="1048" y="518" width="286" height="74" rx="22" fill="#243126"/>
  <rect x="1048" y="638" width="286" height="74" rx="22" fill="#243126"/>
  <rect x="1048" y="758" width="286" height="74" rx="22" fill="#243126"/>
  <defs>
    <linearGradient id="a" x1="1048" y1="435" x2="1334" y2="435" gradientUnits="userSpaceOnUse">
      <stop stop-color="#1E7A32"/>
      <stop offset="0.55" stop-color="#4D9B22"/>
      <stop offset="1" stop-color="#72BC28"/>
    </linearGradient>
  </defs>
</svg>
