<svg width="1600" height="1260" viewBox="0 0 1600 1260" fill="none" xmlns="http://www.w3.org/2000/svg">
  <rect width="1600" height="1260" rx="44" fill="#0E140F"/>
  <rect x="80" y="92" width="1440" height="1076" rx="36" fill="#121A13"/>
  <rect x="128" y="142" width="420" height="44" rx="22" fill="#F2F7F0"/>
  <rect x="128" y="216" width="292" height="24" rx="12" fill="#7D8D7E"/>
  <rect x="128" y="304" width="820" height="540" rx="28" fill="#182319"/>
  <rect x="1008" y="304" width="392" height="540" rx="28" fill="#182319"/>
  <rect x="224" y="398" width="628" height="352" rx="26" fill="#223124"/>
  <polygon points="492,510 620,574 492,638" fill="#72BC28"/>
  <rect x="128" y="890" width="1272" height="162" rx="28" fill="#182319"/>
  <rect x="1040" y="408" width="292" height="80" rx="22" fill="url(#a)"/>
  <rect x="1040" y="528" width="292" height="80" rx="22" fill="#243126"/>
  <rect x="1040" y="648" width="292" height="80" rx="22" fill="#243126"/>
  <defs>
    <linearGradient id="a" x1="1040" y1="448" x2="1332" y2="448" gradientUnits="userSpaceOnUse">
      <stop stop-color="#1E7A32"/>
      <stop offset="0.55" stop-color="#4D9B22"/>
      <stop offset="1" stop-color="#72BC28"/>
    </linearGradient>
  </defs>
</svg>
